<?xml version="1.0" encoding="UTF-8"?>
<svg id="Layer_1" data-name="Layer 1" xmlns="http://www.w3.org/2000/svg" viewBox="520 520 960 960">
  <defs>
    <style>
      .cls-1 {
        fill: #e87040;
      }
    </style>
  </defs>
  <path class="cls-1" d="M1402.83,967.36c1.64-25.79,2.53-59.61-.09-99.03-2.83-42.54-18.89-284.42-109.28-307.39-58.77-14.93-141.91,64.46-206.22,177.17-27.82-4.85-56.62-7.45-86.16-7.57h-2.16c-29.53.11-58.33,2.71-86.16,7.57-64.3-112.7-147.45-192.09-206.22-177.17-90.39,22.97-106.46,264.85-109.28,307.39-2.62,39.42-1.73,73.24-.09,99.03-15.77,37.01-24.36,76.84-24.36,118.33,0,195.55,190.59,354.19,426.11,355.17h2.16c235.52-.98,426.11-159.62,426.11-355.17,0-41.49-8.59-81.33-24.36-118.33ZM780.14,1288.33c-.75-.27-1.48-.48-2.14-.71-1.73-.57-3.21-1.05-4.42-1.46-59.29-19.89-101.51-71.21-114.91-126.6-3.35-13.92-21.03-87.09,21.51-124.87,27.73-24.61,66.31-21.1,88.48-19.1.68.07,1.57.14,2.67.27.25.02.55.05.82.09,1.46.16,3.17.39,5.15.68-14.26,31.92-23.26,78.98-23.26,131.43,0,57.86,10.96,109.12,27.82,140.78-.59-.23-1.16-.39-1.71-.52ZM892.19,1279.88c-.75.59-1.53,1.18-2.3,1.75l-1.78,1.23c-.82.57-1.64,1.12-2.46,1.64-1.28.75-2.57,1.55-3.87,2.26-.71.41-1.44.77-2.16,1.14-2.01,1.03-4.03,1.94-6.08,2.78-.59.23-1.18.48-1.78.71-.59.23-1.18.46-1.8.66-2.73.98-5.51,1.78-8.32,2.48-.73.18-1.44.34-2.14.5-.62.14-1.23.27-1.85.39v.02c-.07.02-.16.02-.25.02.09,0,.18-.02.25-.05,18.98-30.83,31.58-85.29,31.58-147.34,0-27.07-2.39-52.68-6.68-75.51.75.89,1.5,1.78,2.26,2.69,48.56,59.29,59.29,163.56,7.38,204.62ZM1142.36,1295.44v-.02c-.62-.11-1.23-.25-1.85-.39-.71-.16-1.41-.32-2.14-.5-2.8-.71-5.58-1.5-8.32-2.48-.62-.21-1.21-.43-1.8-.66-.59-.23-1.18-.48-1.78-.71-2.05-.84-4.08-1.75-6.08-2.78-.73-.36-1.46-.73-2.16-1.14-1.3-.71-2.6-1.5-3.87-2.26-.82-.52-1.64-1.07-2.46-1.64l-1.78-1.23c-.77-.57-1.55-1.16-2.3-1.75-51.91-41.06-41.18-145.33,7.38-204.62.75-.91,1.5-1.8,2.26-2.69-4.28,22.83-6.68,48.44-6.68,75.51,0,62.05,12.6,116.51,31.58,147.34.09.02.16.05.23.05-.07,0-.14,0-.23-.02ZM1341.33,1159.56c-13.4,55.39-55.62,106.71-114.91,126.6-1.21.41-2.69.89-4.42,1.46-.66.23-1.39.43-2.14.71-.55.14-1.12.3-1.71.52,16.86-31.65,27.82-82.92,27.82-140.78,0-52.45-9-99.51-23.26-131.43,1.98-.3,3.69-.52,5.15-.68.27-.05.57-.07.82-.09,1.09-.14,1.98-.21,2.67-.27,22.17-2.01,60.75-5.51,88.48,19.1,42.54,37.78,24.86,110.95,21.51,124.87Z"/>
</svg>