<?xml version="1.0" encoding="UTF-8"?>
<svg xmlns="http://www.w3.org/2000/svg" viewBox="520 520 960 960">
  <!-- Solid silhouette: same outer body path as cat.svg, without the
       inner eye sub-paths. Used as the closed-eyes frame on the loading
       screen so the cat reads as blinking. -->
  <path fill="#e87040" d="M1402.83,967.36c1.64-25.79,2.53-59.61-.09-99.03-2.83-42.54-18.89-284.42-109.28-307.39-58.77-14.93-141.91,64.46-206.22,177.17-27.82-4.85-56.62-7.45-86.16-7.57h-2.16c-29.53.11-58.33,2.71-86.16,7.57-64.3-112.7-147.45-192.09-206.22-177.17-90.39,22.97-106.46,264.85-109.28,307.39-2.62,39.42-1.73,73.24-.09,99.03-15.77,37.01-24.36,76.84-24.36,118.33,0,195.55,190.59,354.19,426.11,355.17h2.16c235.52-.98,426.11-159.62,426.11-355.17,0-41.49-8.59-81.33-24.36-118.33Z"/>
</svg>
